<?xml version="1.0" encoding="UTF-8" standalone="no"?>
<!-- Created with Inkscape (http://www.inkscape.org/) -->

<svg
   xmlns:osb="http://www.openswatchbook.org/uri/2009/osb"
   xmlns:dc="http://purl.org/dc/elements/1.1/"
   xmlns:cc="http://creativecommons.org/ns#"
   xmlns:rdf="http://www.w3.org/1999/02/22-rdf-syntax-ns#"
   xmlns:svg="http://www.w3.org/2000/svg"
   xmlns="http://www.w3.org/2000/svg"
   xmlns:sodipodi="http://sodipodi.sourceforge.net/DTD/sodipodi-0.dtd"
   xmlns:inkscape="http://www.inkscape.org/namespaces/inkscape"
   width="26.82in"
   height="8.547in"
   viewBox="0 0 681.2 217.2"
   version="1.1"
   id="svg8"
   inkscape:version="0.92.3 (2405546, 2018-03-11)"
   sodipodi:docname="preprocessing_flow.svg"
   inkscape:export-filename="/home/susan/Projects/Work/2020-cmcRwriteUp/images/preprocessing_flow.png"
   inkscape:export-xdpi="300"
   inkscape:export-ydpi="300">
  <defs
     id="defs2">
    <linearGradient
       id="linearGradient6307"
       osb:paint="solid">
      <stop
         style="stop-color:#000000;stop-opacity:1;"
         offset="0"
         id="stop6305" />
    </linearGradient>
    <linearGradient
       id="linearGradient4867"
       osb:paint="solid">
      <stop
         style="stop-color:#f9ff00;stop-opacity:0;"
         offset="0"
         id="stop4865" />
    </linearGradient>
  </defs>
  <sodipodi:namedview
     id="base"
     pagecolor="#ffffff"
     bordercolor="#666666"
     borderopacity="1.0"
     inkscape:pageopacity="0.0"
     inkscape:pageshadow="2"
     inkscape:zoom="0.4747"
     inkscape:cx="1492"
     inkscape:cy="1436"
     inkscape:document-units="mm"
     inkscape:current-layer="layer2"
     showgrid="true"
     inkscape:snap-global="false"
     inkscape:window-width="3840"
     inkscape:window-height="2102"
     inkscape:window-x="0"
     inkscape:window-y="0"
     inkscape:window-maximized="1"
     units="in"
     showguides="false"
     inkscape:pagecheckerboard="false"
     fit-margin-top="0.125"
     fit-margin-left="0.125"
     fit-margin-right="0.125"
     fit-margin-bottom="0.125">
    <inkscape:grid
       type="xygrid"
       id="grid3721"
       originx="-27.38"
       originy="-366.6" />
    <sodipodi:guide
       position="-566.7,237.5"
       orientation="1,0"
       id="guide173"
       inkscape:locked="false" />
  </sodipodi:namedview>
  <metadata
     id="metadata5">
    <rdf:RDF>
      <cc:Work
         rdf:about="">
        <dc:format>image/svg+xml</dc:format>
        <dc:type
           rdf:resource="http://purl.org/dc/dcmitype/StillImage" />
        <dc:title></dc:title>
      </cc:Work>
    </rdf:RDF>
  </metadata>
  <g
     inkscape:groupmode="layer"
     id="layer3"
     inkscape:label="Paths"
     transform="translate(-19.69,-73.96)" />
  <g
     inkscape:label="Layer 1"
     inkscape:groupmode="layer"
     id="layer1"
     transform="translate(-23.49,98.24)" />
  <g
     inkscape:groupmode="layer"
     id="layer4"
     inkscape:label="PaperNames"
     transform="translate(-19.69,-73.96)" />
  <g
     id="g7510"
     transform="translate(3.107,-90.66)">
    <rect
       y="94.51"
       x="199.8"
       height="209.3"
       width="79.63"
       id="rect6431-1"
       style="opacity:1;vector-effect:none;fill:none;fill-opacity:1;stroke:#666666;stroke-width:1.0399;stroke-linecap:butt;stroke-linejoin:miter;stroke-miterlimit:4;stroke-dasharray:none;stroke-dashoffset:0;stroke-opacity:1" />
    <g
       transform="translate(71.03,4.613)"
       id="g7355">
      <path
         d="M 140.3,93.59 V 97.36 H 140.8 Q 141.8,97.36 142.3,96.87 Q 142.8,96.39 142.8,95.47 Q 142.8,94.55 142.3,94.07 Q 141.8,93.59 140.8,93.59 Z M 138.7,92.39 H 140.4 Q 141.8,92.39 142.4,92.59 Q 143.1,92.79 143.6,93.27 Q 144.1,93.69 144.3,94.23 Q 144.5,94.78 144.5,95.47 Q 144.5,96.17 144.3,96.72 Q 144.1,97.26 143.6,97.68 Q 143.1,98.16 142.4,98.36 Q 141.7,98.56 140.4,98.56 H 138.7 Z"
         style="font-style:normal;font-variant:normal;font-weight:bold;font-stretch:normal;font-size:8.467px;line-height:1.25;font-family:sans-serif;-inkscape-font-specification:'sans-serif, Bold';font-variant-ligatures:normal;font-variant-caps:normal;font-variant-numeric:normal;font-feature-settings:normal;text-align:start;letter-spacing:0px;word-spacing:0px;writing-mode:lr-tb;text-anchor:start;fill:#4d4d4d;fill-opacity:1;stroke:none;stroke-width:0.2646"
         id="path7314"
         inkscape:connector-curvature="0" />
      <path
         d="M 147.8,94.88 Q 147.4,94.88 147.1,95.23 Q 146.8,95.58 146.8,96.25 Q 146.8,96.91 147.1,97.27 Q 147.4,97.62 147.8,97.62 Q 148.3,97.62 148.6,97.27 Q 148.8,96.91 148.8,96.25 Q 148.8,95.58 148.6,95.23 Q 148.3,94.88 147.8,94.88 Z M 147.8,93.82 Q 149,93.82 149.7,94.46 Q 150.4,95.11 150.4,96.25 Q 150.4,97.39 149.7,98.03 Q 149,98.68 147.8,98.68 Q 146.6,98.68 146,98.03 Q 145.3,97.39 145.3,96.25 Q 145.3,95.11 146,94.46 Q 146.6,93.82 147.8,93.82 Z"
         style="font-style:normal;font-variant:normal;font-weight:bold;font-stretch:normal;font-size:8.467px;line-height:1.25;font-family:sans-serif;-inkscape-font-specification:'sans-serif, Bold';font-variant-ligatures:normal;font-variant-caps:normal;font-variant-numeric:normal;font-feature-settings:normal;text-align:start;letter-spacing:0px;word-spacing:0px;writing-mode:lr-tb;text-anchor:start;fill:#4d4d4d;fill-opacity:1;stroke:none;stroke-width:0.2646"
         id="path7316"
         inkscape:connector-curvature="0" />
      <path
         d="M 151,93.93 H 152.5 L 153.3,97.12 L 154,93.93 H 155.3 L 156.1,97.09 L 156.8,93.93 H 158.3 L 157.1,98.56 H 155.4 L 154.7,95.38 L 153.9,98.56 H 152.3 Z"
         style="font-style:normal;font-variant:normal;font-weight:bold;font-stretch:normal;font-size:8.467px;line-height:1.25;font-family:sans-serif;-inkscape-font-specification:'sans-serif, Bold';font-variant-ligatures:normal;font-variant-caps:normal;font-variant-numeric:normal;font-feature-settings:normal;text-align:start;letter-spacing:0px;word-spacing:0px;writing-mode:lr-tb;text-anchor:start;fill:#4d4d4d;fill-opacity:1;stroke:none;stroke-width:0.2646"
         id="path7318"
         inkscape:connector-curvature="0" />
      <path
         d="M 163.9,95.74 V 98.56 H 162.4 V 98.1 V 96.4 Q 162.4,95.8 162.4,95.58 Q 162.4,95.35 162.3,95.24 Q 162.2,95.1 162.1,95.02 Q 161.9,94.93 161.8,94.93 Q 161.3,94.93 161,95.29 Q 160.8,95.65 160.8,96.28 V 98.56 H 159.3 V 93.93 H 160.8 V 94.61 Q 161.1,94.2 161.5,94.01 Q 161.8,93.82 162.3,93.82 Q 163.1,93.82 163.5,94.31 Q 163.9,94.8 163.9,95.74 Z"
         style="font-style:normal;font-variant:normal;font-weight:bold;font-stretch:normal;font-size:8.467px;line-height:1.25;font-family:sans-serif;-inkscape-font-specification:'sans-serif, Bold';font-variant-ligatures:normal;font-variant-caps:normal;font-variant-numeric:normal;font-feature-settings:normal;text-align:start;letter-spacing:0px;word-spacing:0px;writing-mode:lr-tb;text-anchor:start;fill:#4d4d4d;fill-opacity:1;stroke:none;stroke-width:0.2646"
         id="path7320"
         inkscape:connector-curvature="0" />
      <path
         d="M 168.9,94.07 V 95.2 Q 168.5,95 168,94.9 Q 167.6,94.8 167.2,94.8 Q 166.8,94.8 166.6,94.91 Q 166.4,95.01 166.4,95.23 Q 166.4,95.41 166.5,95.5 Q 166.7,95.6 167.1,95.65 L 167.3,95.68 Q 168.5,95.83 168.9,96.16 Q 169.2,96.49 169.2,97.2 Q 169.2,97.94 168.7,98.31 Q 168.2,98.68 167.1,98.68 Q 166.6,98.68 166.1,98.61 Q 165.6,98.54 165.1,98.39 V 97.27 Q 165.6,97.48 166,97.59 Q 166.5,97.7 167,97.7 Q 167.4,97.7 167.6,97.58 Q 167.8,97.46 167.8,97.22 Q 167.8,97.02 167.7,96.93 Q 167.5,96.83 167.1,96.77 L 166.8,96.74 Q 165.8,96.62 165.4,96.28 Q 165,95.95 165,95.26 Q 165,94.53 165.6,94.17 Q 166.1,93.82 167.1,93.82 Q 167.5,93.82 168,93.88 Q 168.4,93.94 168.9,94.07 Z"
         style="font-style:normal;font-variant:normal;font-weight:bold;font-stretch:normal;font-size:8.467px;line-height:1.25;font-family:sans-serif;-inkscape-font-specification:'sans-serif, Bold';font-variant-ligatures:normal;font-variant-caps:normal;font-variant-numeric:normal;font-feature-settings:normal;text-align:start;letter-spacing:0px;word-spacing:0px;writing-mode:lr-tb;text-anchor:start;fill:#4d4d4d;fill-opacity:1;stroke:none;stroke-width:0.2646"
         id="path7322"
         inkscape:connector-curvature="0" />
      <path
         d="M 172.4,96.48 Q 172,96.48 171.7,96.63 Q 171.5,96.79 171.5,97.1 Q 171.5,97.38 171.7,97.54 Q 171.9,97.7 172.2,97.7 Q 172.6,97.7 172.9,97.4 Q 173.2,97.1 173.2,96.65 V 96.48 Z M 174.7,95.92 V 98.56 H 173.2 V 97.87 Q 172.9,98.3 172.5,98.49 Q 172.2,98.68 171.6,98.68 Q 170.9,98.68 170.5,98.26 Q 170,97.84 170,97.17 Q 170,96.36 170.6,95.98 Q 171.1,95.6 172.3,95.6 H 173.2 V 95.48 Q 173.2,95.13 172.9,94.97 Q 172.7,94.8 172.1,94.8 Q 171.6,94.8 171.2,94.9 Q 170.8,94.99 170.4,95.18 V 94.05 Q 170.9,93.94 171.4,93.88 Q 171.9,93.82 172.3,93.82 Q 173.6,93.82 174.1,94.31 Q 174.7,94.81 174.7,95.92 Z"
         style="font-style:normal;font-variant:normal;font-weight:bold;font-stretch:normal;font-size:8.467px;line-height:1.25;font-family:sans-serif;-inkscape-font-specification:'sans-serif, Bold';font-variant-ligatures:normal;font-variant-caps:normal;font-variant-numeric:normal;font-feature-settings:normal;text-align:start;letter-spacing:0px;word-spacing:0px;writing-mode:lr-tb;text-anchor:start;fill:#4d4d4d;fill-opacity:1;stroke:none;stroke-width:0.2646"
         id="path7324"
         inkscape:connector-curvature="0" />
      <path
         d="M 180.4,94.7 Q 180.7,94.27 181,94.05 Q 181.4,93.82 181.9,93.82 Q 182.7,93.82 183.1,94.31 Q 183.5,94.8 183.5,95.74 V 98.56 H 182 V 96.15 Q 182,96.09 182,96.03 Q 182,95.98 182,95.87 Q 182,95.38 181.9,95.16 Q 181.8,94.93 181.4,94.93 Q 181,94.93 180.8,95.28 Q 180.6,95.63 180.5,96.29 V 98.56 H 179.1 V 96.15 Q 179.1,95.38 178.9,95.16 Q 178.8,94.93 178.5,94.93 Q 178,94.93 177.8,95.29 Q 177.6,95.63 177.6,96.28 V 98.56 H 176.1 V 93.93 H 177.6 V 94.61 Q 177.8,94.21 178.2,94.02 Q 178.5,93.82 179,93.82 Q 179.4,93.82 179.8,94.05 Q 180.2,94.28 180.4,94.7 Z"
         style="font-style:normal;font-variant:normal;font-weight:bold;font-stretch:normal;font-size:8.467px;line-height:1.25;font-family:sans-serif;-inkscape-font-specification:'sans-serif, Bold';font-variant-ligatures:normal;font-variant-caps:normal;font-variant-numeric:normal;font-feature-settings:normal;text-align:start;letter-spacing:0px;word-spacing:0px;writing-mode:lr-tb;text-anchor:start;fill:#4d4d4d;fill-opacity:1;stroke:none;stroke-width:0.2646"
         id="path7326"
         inkscape:connector-curvature="0" />
      <path
         d="M 186.4,97.89 V 100.3 H 184.9 V 93.93 H 186.4 V 94.61 Q 186.7,94.2 187.1,94.01 Q 187.4,93.82 187.9,93.82 Q 188.8,93.82 189.3,94.5 Q 189.9,95.18 189.9,96.25 Q 189.9,97.32 189.3,98 Q 188.8,98.68 187.9,98.68 Q 187.4,98.68 187.1,98.49 Q 186.7,98.3 186.4,97.89 Z M 187.4,94.89 Q 186.9,94.89 186.6,95.24 Q 186.4,95.59 186.4,96.25 Q 186.4,96.91 186.6,97.26 Q 186.9,97.6 187.4,97.6 Q 187.9,97.6 188.1,97.26 Q 188.4,96.91 188.4,96.25 Q 188.4,95.59 188.1,95.24 Q 187.9,94.89 187.4,94.89 Z"
         style="font-style:normal;font-variant:normal;font-weight:bold;font-stretch:normal;font-size:8.467px;line-height:1.25;font-family:sans-serif;-inkscape-font-specification:'sans-serif, Bold';font-variant-ligatures:normal;font-variant-caps:normal;font-variant-numeric:normal;font-feature-settings:normal;text-align:start;letter-spacing:0px;word-spacing:0px;writing-mode:lr-tb;text-anchor:start;fill:#4d4d4d;fill-opacity:1;stroke:none;stroke-width:0.2646"
         id="path7328"
         inkscape:connector-curvature="0" />
      <path
         d="M 191,92.13 H 192.5 V 98.56 H 191 Z"
         style="font-style:normal;font-variant:normal;font-weight:bold;font-stretch:normal;font-size:8.467px;line-height:1.25;font-family:sans-serif;-inkscape-font-specification:'sans-serif, Bold';font-variant-ligatures:normal;font-variant-caps:normal;font-variant-numeric:normal;font-feature-settings:normal;text-align:start;letter-spacing:0px;word-spacing:0px;writing-mode:lr-tb;text-anchor:start;fill:#4d4d4d;fill-opacity:1;stroke:none;stroke-width:0.2646"
         id="path7330"
         inkscape:connector-curvature="0" />
      <path
         d="M 198.5,96.23 V 96.65 H 195.1 Q 195.1,97.18 195.4,97.44 Q 195.8,97.7 196.3,97.7 Q 196.8,97.7 197.3,97.56 Q 197.8,97.42 198.3,97.14 V 98.28 Q 197.8,98.48 197.2,98.58 Q 196.7,98.68 196.2,98.68 Q 194.9,98.68 194.2,98.04 Q 193.5,97.4 193.5,96.25 Q 193.5,95.12 194.2,94.47 Q 194.9,93.82 196.1,93.82 Q 197.2,93.82 197.9,94.48 Q 198.5,95.13 198.5,96.23 Z M 197,95.74 Q 197,95.32 196.7,95.06 Q 196.5,94.8 196.1,94.8 Q 195.7,94.8 195.4,95.05 Q 195.1,95.29 195.1,95.74 Z"
         style="font-style:normal;font-variant:normal;font-weight:bold;font-stretch:normal;font-size:8.467px;line-height:1.25;font-family:sans-serif;-inkscape-font-specification:'sans-serif, Bold';font-variant-ligatures:normal;font-variant-caps:normal;font-variant-numeric:normal;font-feature-settings:normal;text-align:start;letter-spacing:0px;word-spacing:0px;writing-mode:lr-tb;text-anchor:start;fill:#4d4d4d;fill-opacity:1;stroke:none;stroke-width:0.2646"
         id="path7332"
         inkscape:connector-curvature="0" />
    </g>
  </g>
  <g
     id="g7515"
     style="stroke-width:1;stroke-miterlimit:4;stroke-dasharray:none"
     transform="translate(3.107,-90.66)">
    <path
       inkscape:connector-curvature="0"
       id="rect6431-1-2"
       d="M 303.9,94.67 H 383.5 V 303.9 H 303.9 Z"
       style="opacity:1;vector-effect:none;fill:none;fill-opacity:1;stroke:#666666;stroke-width:1;stroke-linecap:butt;stroke-linejoin:miter;stroke-miterlimit:4;stroke-dasharray:none;stroke-dashoffset:0;stroke-opacity:1" />
    <text
       xml:space="preserve"
       style="font-style:normal;font-variant:normal;font-weight:normal;font-stretch:normal;font-size:6.3512px;line-height:1.25;font-family:sans-serif;-inkscape-font-specification:'sans-serif, Normal';font-variant-ligatures:normal;font-variant-caps:normal;font-variant-numeric:normal;font-feature-settings:normal;text-align:start;letter-spacing:0px;word-spacing:0px;writing-mode:lr-tb;text-anchor:start;fill:#000000;fill-opacity:1;stroke:none;stroke-width:1;stroke-miterlimit:4;stroke-dasharray:none"
       x="328.1"
       y="102.6"
       id="text7259-8"><tspan
         sodipodi:role="line"
         id="tspan7257-9"
         x="328.1"
         y="102.6"
         style="font-style:normal;font-variant:normal;font-weight:bold;font-stretch:normal;font-size:8.4681px;font-family:sans-serif;-inkscape-font-specification:'sans-serif, Bold';font-variant-ligatures:normal;font-variant-caps:normal;font-variant-numeric:normal;font-feature-settings:normal;text-align:start;writing-mode:lr-tb;text-anchor:start;fill:#4d4d4d;stroke-width:1;stroke-miterlimit:4;stroke-dasharray:none">Resize</tspan></text>
  </g>
  <path
     style="opacity:1;vector-effect:none;fill:none;fill-opacity:1;stroke:#666666;stroke-width:1;stroke-linecap:butt;stroke-linejoin:miter;stroke-miterlimit:4;stroke-dasharray:none;stroke-dashoffset:0;stroke-opacity:1"
     d="M 407.7,4.161 H 488.9 V 213.5 H 407.7 Z"
     id="rect6431-1-2-8"
     inkscape:connector-curvature="0"
     inkscape:export-xdpi="300"
     inkscape:export-ydpi="300" />
  <text
     id="text7259-8-3"
     y="12.14"
     x="448.3"
     style="font-style:normal;font-variant:normal;font-weight:normal;font-stretch:normal;font-size:6.3511px;line-height:1.25;font-family:sans-serif;-inkscape-font-specification:'sans-serif, Normal';font-variant-ligatures:normal;font-variant-caps:normal;font-variant-numeric:normal;font-feature-settings:normal;text-align:start;letter-spacing:0px;word-spacing:0px;writing-mode:lr-tb;text-anchor:start;fill:#000000;fill-opacity:1;stroke:none;stroke-width:0.2646"
     xml:space="preserve"><tspan
       sodipodi:role="line"
       id="tspan7827"
       style="font-style:normal;font-variant:normal;font-weight:bold;font-stretch:normal;font-size:8.4677px;font-family:sans-serif;-inkscape-font-specification:'sans-serif, Bold';font-variant-ligatures:normal;font-variant-caps:normal;font-variant-numeric:normal;font-feature-settings:normal;text-align:center;writing-mode:lr-tb;text-anchor:middle;fill:#4d4d4d;fill-opacity:1"
       x="449.8"
       y="12.14">Trim, level, and </tspan><tspan
       sodipodi:role="line"
       id="tspan7829"
       style="font-style:normal;font-variant:normal;font-weight:bold;font-stretch:normal;font-size:8.4677px;font-family:sans-serif;-inkscape-font-specification:'sans-serif, Bold';font-variant-ligatures:normal;font-variant-caps:normal;font-variant-numeric:normal;font-feature-settings:normal;text-align:center;writing-mode:lr-tb;text-anchor:middle;fill:#4d4d4d;fill-opacity:1"
       x="449.8"
       y="22.72">remove </tspan><tspan
       sodipodi:role="line"
       id="tspan7831"
       style="font-style:normal;font-variant:normal;font-weight:bold;font-stretch:normal;font-size:8.4677px;font-family:sans-serif;-inkscape-font-specification:'sans-serif, Bold';font-variant-ligatures:normal;font-variant-caps:normal;font-variant-numeric:normal;font-feature-settings:normal;text-align:center;writing-mode:lr-tb;text-anchor:middle;fill:#4d4d4d;fill-opacity:1"
       x="448.3"
       y="33.31">outliers</tspan></text>
  <g
     id="g7496"
     transform="translate(3.107,-90.66)">
    <rect
       y="94.36"
       x="107.5"
       height="209.5"
       width="79.63"
       id="rect6431"
       style="opacity:1;vector-effect:none;fill:none;fill-opacity:1;stroke:#666666;stroke-width:1.0404;stroke-linecap:butt;stroke-linejoin:miter;stroke-miterlimit:4;stroke-dasharray:none;stroke-dashoffset:0;stroke-opacity:1" />
    <text
       id="text7259"
       y="103"
       x="134.3"
       style="font-style:normal;font-variant:normal;font-weight:normal;font-stretch:normal;font-size:6.3504px;line-height:1.25;font-family:sans-serif;-inkscape-font-specification:'sans-serif, Normal';font-variant-ligatures:normal;font-variant-caps:normal;font-variant-numeric:normal;font-feature-settings:normal;text-align:start;letter-spacing:0px;word-spacing:0px;writing-mode:lr-tb;text-anchor:start;fill:#000000;fill-opacity:1;stroke:none;stroke-width:0.2646"
       xml:space="preserve"><tspan
         style="font-style:normal;font-variant:normal;font-weight:bold;font-stretch:normal;font-size:8.467px;font-family:sans-serif;-inkscape-font-specification:'sans-serif, Bold';font-variant-ligatures:normal;font-variant-caps:normal;font-variant-numeric:normal;font-feature-settings:normal;text-align:start;writing-mode:lr-tb;text-anchor:start;fill:#4d4d4d;stroke-width:0.2646"
         y="103"
         x="134.3"
         id="tspan7257"
         sodipodi:role="line">Input </tspan></text>
  </g>
  <g
     inkscape:groupmode="layer"
     id="layer2"
     inkscape:label="Boxes"
     style="display:inline"
     transform="translate(-19.69,-73.96)">
    <path
       style="fill:none;stroke:#0055d4;stroke-width:3;stroke-linecap:round;stroke-linejoin:round;stroke-miterlimit:4;stroke-dasharray:none;stroke-opacity:0.9412"
       d="M 24.42,116.5 C 24.42,116.5 95.15,116.4 99.33,116.5 C 131.3,116.1 119.2,150.7 142.1,150.7 C 156.8,150.7 182,149.9 192.9,150.3 C 214.3,150.6 203.2,206.5 225.8,206.4 C 248,206.2 270.9,206.1 294.1,206 C 313.9,206.4 315.3,123.1 336.6,122.8 L 398.9,121.9 C 417,121.8 416.9,154.7 441.2,154.8 C 455.6,154.4 483.4,155.9 497.4,155.9 C 518.4,156 501.7,111.1 529,111.2 C 549.9,111.4 592.4,110.9 592.4,110.9 L 696,111.6"
       id="path355"
       inkscape:connector-curvature="0"
       sodipodi:nodetypes="ccccccccccscc" />
    <path
       style="fill:none;stroke:#002255;stroke-width:3;stroke-linecap:round;stroke-linejoin:round;stroke-miterlimit:4;stroke-dasharray:none;stroke-opacity:1"
       d="M 24.38,141.3 L 97.1,141.6 C 121.8,141.4 123.2,209.8 141.7,209.8 L 197.3,209.6 C 224.4,209.6 203.5,150.8 228.4,150.7 L 297.3,150.5 C 313.7,150.7 313.9,186.2 330.9,186.4 L 399.2,186.6 C 416.9,186.5 416.9,205.7 431.3,205.7 L 500.5,205.9 C 514.4,206.2 516,186.2 530.1,186.1 C 548.7,186 583.7,186.9 592.9,187 C 611.5,186.8 696.5,187.1 696.5,187.1"
       id="path6311"
       inkscape:connector-curvature="0"
       sodipodi:nodetypes="ccccccccccscc" />
    <path
       style="fill:none;stroke:#00aa00;stroke-width:3;stroke-linecap:round;stroke-linejoin:round;stroke-miterlimit:4;stroke-dasharray:none;stroke-opacity:1"
       d="M 24.48,171.4 H 92.15 C 113.3,171.5 118.1,219.8 141.7,219.7 H 193.2 C 206.6,220 216.8,215 227.8,215.4 L 293.7,216.1 C 307.2,216 317.2,239.4 331.6,240.5 L 388.8,240.4 C 415.6,240.8 407.8,216.3 432.3,216.2 L 499.2,214.8 C 513.2,214.4 517.4,235.1 530.7,235.5 C 548,236 584.9,234.5 593,234.6 C 607.2,235.2 696.1,234.4 696.1,234.4"
       id="path6313"
       inkscape:connector-curvature="0"
       sodipodi:nodetypes="ccccccccccscc" />
    <path
       style="fill:none;stroke:#005500;stroke-width:3;stroke-linecap:round;stroke-linejoin:round;stroke-miterlimit:4;stroke-dasharray:none;stroke-opacity:1"
       d="M 24.49,206.7 L 90.17,206.6 C 111.3,206.7 118.2,230 141.8,229.9 L 194.6,230 C 205.3,229.9 216.9,226.4 227.3,226.3 L 293.7,226 C 307.1,226.4 320.5,263.7 332.3,263.5 L 390.2,263.2 C 410.7,263.6 415.1,227.7 431.6,227.4 L 497.7,226.5 C 510.6,226.3 517.6,252.4 530.1,252.5 L 592.9,252.8 L 696.2,252.5"
       id="path6313-3"
       inkscape:connector-curvature="0"
       sodipodi:nodetypes="ccccccccccccc" />
    <path
       style="fill:none;stroke:#5a2971;stroke-width:3;stroke-linecap:round;stroke-linejoin:round;stroke-miterlimit:4;stroke-dasharray:none;stroke-opacity:1"
       d="M 24.37,238.4 L 94.63,238.3 L 142.9,238 H 200.1 L 227.8,237.9 L 290.3,238 C 307.1,238.5 320,281.9 336.4,281.9 L 397.3,282.3 C 416,281.8 416.1,240.2 431.7,240 L 500,240.1 C 516.4,240.4 514.9,272 530.8,271.8 C 543.7,271.6 582.5,271 594.3,271.2 C 611.5,271 696,271.2 696,271.2"
       id="path6429"
       inkscape:connector-curvature="0"
       sodipodi:nodetypes="ccccccccccscc" />
    <g
       id="g6877"
       transform="translate(2.001,-3.212)">
      <g
         id="g938">
        <text
           xml:space="preserve"
           style="font-style:normal;font-weight:normal;font-size:10.5833px;line-height:1.25;font-family:sans-serif;letter-spacing:0px;word-spacing:0px;fill:#000000;fill-opacity:1;stroke:none;stroke-width:0.2646"
           x="22.51"
           y="117.9"
           id="text6831"><tspan
             sodipodi:role="line"
             id="tspan6829"
             x="22.51"
             y="117.9"
             style="font-style:normal;font-variant:normal;font-weight:normal;font-stretch:normal;font-size:8.4667px;font-family:sans-serif;-inkscape-font-specification:'sans-serif, Normal';font-variant-ligatures:normal;font-variant-caps:normal;font-variant-numeric:normal;font-feature-settings:normal;text-align:start;writing-mode:lr-tb;text-anchor:start;stroke-width:0.2646">Song et al. (2014)</tspan></text>
        <text
           id="text6835"
           y="142.7"
           x="22.89"
           style="font-style:normal;font-weight:normal;font-size:10.5833px;line-height:1.25;font-family:sans-serif;letter-spacing:0px;word-spacing:0px;fill:#000000;fill-opacity:1;stroke:none;stroke-width:0.2646"
           xml:space="preserve"><tspan
             style="font-style:normal;font-variant:normal;font-weight:normal;font-stretch:normal;font-size:8.4667px;font-family:sans-serif;-inkscape-font-specification:'sans-serif, Normal';font-variant-ligatures:normal;font-variant-caps:normal;font-variant-numeric:normal;font-feature-settings:normal;text-align:start;writing-mode:lr-tb;text-anchor:start;stroke-width:0.2646"
             y="142.7"
             x="22.89"
             id="tspan6833"
             sodipodi:role="line">Tong et al. (2014)</tspan></text>
        <text
           xml:space="preserve"
           style="font-style:normal;font-weight:normal;font-size:10.5833px;line-height:1.25;font-family:sans-serif;letter-spacing:0px;word-spacing:0px;fill:#000000;fill-opacity:1;stroke:none;stroke-width:0.2646"
           x="22.56"
           y="172.9"
           id="text6839"><tspan
             sodipodi:role="line"
             id="tspan6837"
             x="22.56"
             y="172.9"
             style="font-style:normal;font-variant:normal;font-weight:normal;font-stretch:normal;font-size:8.4667px;font-family:sans-serif;-inkscape-font-specification:'sans-serif, Normal';font-variant-ligatures:normal;font-variant-caps:normal;font-variant-numeric:normal;font-feature-settings:normal;text-align:start;writing-mode:lr-tb;text-anchor:start;stroke-width:0.2646">Chen et al. (2017)</tspan></text>
        <text
           id="text6843"
           y="208.3"
           x="22.51"
           style="font-style:normal;font-weight:normal;font-size:10.5833px;line-height:1.25;font-family:sans-serif;letter-spacing:0px;word-spacing:0px;fill:#000000;fill-opacity:1;stroke:none;stroke-width:0.2646"
           xml:space="preserve"><tspan
             style="font-style:normal;font-variant:normal;font-weight:normal;font-stretch:normal;font-size:8.4667px;font-family:sans-serif;-inkscape-font-specification:'sans-serif, Normal';font-variant-ligatures:normal;font-variant-caps:normal;font-variant-numeric:normal;font-feature-settings:normal;text-align:start;writing-mode:lr-tb;text-anchor:start;stroke-width:0.2646"
             y="208.3"
             x="22.51"
             id="tspan6841"
             sodipodi:role="line">Song et al. (2018)</tspan></text>
        <text
           xml:space="preserve"
           style="font-style:normal;font-weight:normal;font-size:10.5833px;line-height:1.25;font-family:sans-serif;letter-spacing:0px;word-spacing:0px;fill:#000000;fill-opacity:1;stroke:none;stroke-width:0.2646"
           x="22.62"
           y="240.1"
           id="text6847"><tspan
             sodipodi:role="line"
             id="tspan6845"
             x="22.62"
             y="240.1"
             style="font-style:normal;font-variant:normal;font-weight:normal;font-stretch:normal;font-size:8.4667px;font-family:sans-serif;-inkscape-font-specification:'sans-serif, Normal';font-variant-ligatures:normal;font-variant-caps:normal;font-variant-numeric:normal;font-feature-settings:normal;text-align:start;writing-mode:lr-tb;text-anchor:start;stroke-width:0.2646">Zemmels et al. (2020)</tspan></text>
      </g>
    </g>
    <g
       id="g163">
      <path
         sodipodi:nodetypes="cccccccccc"
         inkscape:connector-curvature="0"
         id="path3752-9-9"
         d="M 142.6,127.9 V 139.2 V 150.6 V 161.9 V 173.2 H 199.1 L 187.8,161.9 C 187.6,154.3 187.7,146.8 187.8,139.2 L 199.1,127.9 Z"
         style="fill:#ffffff;fill-opacity:1;stroke:#000000;stroke-width:1.1305px;stroke-linecap:butt;stroke-linejoin:miter;stroke-opacity:1" />
      <text
         id="text4809"
         y="152.6"
         x="145"
         style="font-style:normal;font-weight:normal;font-size:10.5833px;line-height:1.25;font-family:sans-serif;letter-spacing:0px;word-spacing:0px;fill:#000000;fill-opacity:1;stroke:none;stroke-width:0.2646"
         xml:space="preserve"><tspan
           style="font-style:normal;font-variant:normal;font-weight:normal;font-stretch:normal;font-size:8.4667px;font-family:sans-serif;-inkscape-font-specification:'sans-serif, Normal';font-variant-ligatures:normal;font-variant-caps:normal;font-variant-numeric:normal;font-feature-settings:normal;text-align:start;writing-mode:lr-tb;text-anchor:start;stroke-width:0.2646"
           y="152.6"
           x="145"
           id="tspan4807"
           sodipodi:role="line">2D Image</tspan></text>
    </g>
    <g
       id="g170">
      <path
         sodipodi:nodetypes="cccccccccc"
         inkscape:connector-curvature="0"
         id="path3752-9"
         d="M 142.6,199.8 V 211.1 V 222.4 V 233.8 V 245.1 H 199.1 L 187.8,233.8 C 187.6,226.2 187.7,218.7 187.8,211.1 L 199.1,199.8 Z"
         style="fill:#ffffff;fill-opacity:1;stroke:#000000;stroke-width:1.1305px;stroke-linecap:butt;stroke-linejoin:miter;stroke-opacity:1" />
      <text
         id="text4845"
         y="214.9"
         x="145.1"
         style="font-style:normal;font-weight:normal;font-size:5.6444px;line-height:1.25;font-family:sans-serif;letter-spacing:0px;word-spacing:0px;fill:#000000;fill-opacity:1;stroke:none;stroke-width:0.2646"
         xml:space="preserve"><tspan
           style="font-size:8.4667px;stroke-width:0.2646"
           y="214.9"
           x="145.1"
           id="tspan4843"
           sodipodi:role="line">3D </tspan><tspan
           id="tspan1210"
           style="font-size:8.4667px;stroke-width:0.2646"
           y="225.5"
           x="145.1"
           sodipodi:role="line">Surface</tspan><tspan
           id="tspan4847"
           style="font-size:8.4667px;stroke-width:0.2646"
           y="236.1"
           x="145.1"
           sodipodi:role="line">Matrix</tspan></text>
    </g>
    <g
       id="g7578"
       transform="matrix(1,0,0,0.9985,-64.77,-16.57)"
       style="stroke-width:1.0007;stroke-miterlimit:4;stroke-dasharray:none">
      <path
         inkscape:connector-curvature="0"
         id="rect6431-1-2-85"
         d="M 587.3,95.1 H 666.9 V 304.3 H 587.3 Z"
         style="opacity:1;vector-effect:none;fill:none;fill-opacity:1;stroke:#666666;stroke-width:1.0007;stroke-linecap:butt;stroke-linejoin:miter;stroke-miterlimit:4;stroke-dasharray:none;stroke-dashoffset:0;stroke-opacity:1" />
      <text
         xml:space="preserve"
         style="font-style:normal;font-variant:normal;font-weight:normal;font-stretch:normal;font-size:6.3512px;line-height:1.25;font-family:sans-serif;-inkscape-font-specification:'sans-serif, Normal';font-variant-ligatures:normal;font-variant-caps:normal;font-variant-numeric:normal;font-feature-settings:normal;text-align:start;letter-spacing:0px;word-spacing:0px;writing-mode:lr-tb;text-anchor:start;fill:#000000;fill-opacity:1;stroke:none;stroke-width:1.0007;stroke-miterlimit:4;stroke-dasharray:none"
         x="613.9"
         y="103"
         id="text7259-8-5"><tspan
           sodipodi:role="line"
           id="tspan7257-9-0"
           x="613.9"
           y="103"
           style="font-style:normal;font-variant:normal;font-weight:bold;font-stretch:normal;font-size:8.4681px;font-family:sans-serif;-inkscape-font-specification:'sans-serif, Bold';font-variant-ligatures:normal;font-variant-caps:normal;font-variant-numeric:normal;font-feature-settings:normal;text-align:start;writing-mode:lr-tb;text-anchor:start;fill:#4d4d4d;stroke-width:1.0007;stroke-miterlimit:4;stroke-dasharray:none">Filter</tspan></text>
    </g>
    <text
       xml:space="preserve"
       style="font-style:normal;font-weight:normal;font-size:10.5833px;line-height:1.25;font-family:sans-serif;letter-spacing:0px;word-spacing:0px;fill:#000000;fill-opacity:1;stroke:none;stroke-width:0.2646"
       x="621.4"
       y="183"
       id="text6831-4"><tspan
         sodipodi:role="line"
         id="tspan6829-9"
         x="621.4"
         y="183"
         style="font-style:normal;font-variant:normal;font-weight:normal;font-stretch:normal;font-size:8.4667px;font-family:sans-serif;-inkscape-font-specification:'sans-serif, Normal';font-variant-ligatures:normal;font-variant-caps:normal;font-variant-numeric:normal;font-feature-settings:normal;text-align:start;writing-mode:lr-tb;text-anchor:start;stroke-width:0.2646">Song et al. (2014)</tspan></text>
    <text
       id="text6835-3"
       y="108.5"
       x="623"
       style="font-style:normal;font-weight:normal;font-size:10.5833px;line-height:1.25;font-family:sans-serif;letter-spacing:0px;word-spacing:0px;fill:#000000;fill-opacity:1;stroke:none;stroke-width:0.2646"
       xml:space="preserve"><tspan
         style="font-style:normal;font-variant:normal;font-weight:normal;font-stretch:normal;font-size:8.4667px;font-family:sans-serif;-inkscape-font-specification:'sans-serif, Normal';font-variant-ligatures:normal;font-variant-caps:normal;font-variant-numeric:normal;font-feature-settings:normal;text-align:start;writing-mode:lr-tb;text-anchor:start;stroke-width:0.2646"
         y="108.5"
         x="623"
         id="tspan6833-1"
         sodipodi:role="line">Tong et al. (2014)</tspan></text>
    <text
       xml:space="preserve"
       style="font-style:normal;font-weight:normal;font-size:10.5833px;line-height:1.25;font-family:sans-serif;letter-spacing:0px;word-spacing:0px;fill:#000000;fill-opacity:1;stroke:none;stroke-width:0.2646"
       x="620.8"
       y="231.4"
       id="text6839-3"><tspan
         sodipodi:role="line"
         id="tspan6837-8"
         x="620.8"
         y="231.4"
         style="font-style:normal;font-variant:normal;font-weight:normal;font-stretch:normal;font-size:8.4667px;font-family:sans-serif;-inkscape-font-specification:'sans-serif, Normal';font-variant-ligatures:normal;font-variant-caps:normal;font-variant-numeric:normal;font-feature-settings:normal;text-align:start;writing-mode:lr-tb;text-anchor:start;stroke-width:0.2646">Chen et al. (2017)</tspan></text>
    <text
       id="text6843-7"
       y="249.4"
       x="621.4"
       style="font-style:normal;font-weight:normal;font-size:10.5833px;line-height:1.25;font-family:sans-serif;letter-spacing:0px;word-spacing:0px;fill:#000000;fill-opacity:1;stroke:none;stroke-width:0.2646"
       xml:space="preserve"><tspan
         style="font-style:normal;font-variant:normal;font-weight:normal;font-stretch:normal;font-size:8.4667px;font-family:sans-serif;-inkscape-font-specification:'sans-serif, Normal';font-variant-ligatures:normal;font-variant-caps:normal;font-variant-numeric:normal;font-feature-settings:normal;text-align:start;writing-mode:lr-tb;text-anchor:start;stroke-width:0.2646"
         y="249.4"
         x="621.4"
         id="tspan6841-9"
         sodipodi:role="line">Song et al. (2018)</tspan></text>
    <text
       xml:space="preserve"
       style="font-style:normal;font-weight:normal;font-size:10.5833px;line-height:1.25;font-family:sans-serif;letter-spacing:0px;word-spacing:0px;fill:#000000;fill-opacity:1;stroke:none;stroke-width:0.2646"
       x="603.2"
       y="268.8"
       id="text6847-3"><tspan
         sodipodi:role="line"
         id="tspan6845-8"
         x="603.2"
         y="268.8"
         style="font-style:normal;font-variant:normal;font-weight:normal;font-stretch:normal;font-size:8.4667px;font-family:sans-serif;-inkscape-font-specification:'sans-serif, Normal';font-variant-ligatures:normal;font-variant-caps:normal;font-variant-numeric:normal;font-feature-settings:normal;text-align:start;writing-mode:lr-tb;text-anchor:start;stroke-width:0.2646">Zemmels et al. (2020)</tspan></text>
    <g
       id="g223"
       transform="translate(0,74.93)">
      <g
         id="g267">
        <path
           style="display:inline;fill:#fafafa;fill-opacity:1;stroke:#000000;stroke-width:1.1305px;stroke-linecap:butt;stroke-linejoin:miter;stroke-opacity:1"
           d="M 536.6,89.46 C 536.7,94.24 536.7,94.62 536.6,100.8 C 536.6,106.2 529.8,107.6 529.8,111.7 C 529.8,115.6 536.6,118.5 536.6,123.4 C 536.6,128.2 536.6,130.4 536.6,134.7 H 593.1 V 89.46 Z"
           id="path3752-3-2"
           inkscape:connector-curvature="0"
           sodipodi:nodetypes="cccccccc" />
        <text
           xml:space="preserve"
           style="font-style:normal;font-weight:normal;font-size:5.6444px;line-height:1.25;font-family:sans-serif;letter-spacing:0px;word-spacing:0px;fill:#000000;fill-opacity:1;stroke:none;stroke-width:0.2646"
           x="542.3"
           y="104.6"
           id="text5264"><tspan
             sodipodi:role="line"
             id="tspan5262"
             x="542.3"
             y="104.6"
             style="font-size:8.4667px;stroke-width:0.2646">Gaussian</tspan><tspan
             sodipodi:role="line"
             x="542.3"
             y="115.2"
             style="font-size:8.4667px;stroke-width:0.2646"
             id="tspan5266">low-pass </tspan><tspan
             sodipodi:role="line"
             x="542.3"
             y="125.8"
             style="font-size:8.4667px;stroke-width:0.2646"
             id="tspan5270">filter</tspan></text>
      </g>
    </g>
    <g
       id="g230"
       transform="translate(0,-65.44)">
      <g
         id="g260">
        <path
           style="display:inline;fill:#fafafa;fill-opacity:1;stroke:#000000;stroke-width:1.1305px;stroke-linecap:butt;stroke-linejoin:miter;stroke-opacity:1"
           d="M 536.7,163.9 C 536.8,168.7 536.7,169 536.7,175.2 C 536.7,180.7 529.8,182 529.8,186.2 C 529.8,190 536.6,192.9 536.7,197.8 C 536.6,202.6 536.6,204.9 536.7,209.1 H 593.2 V 163.9 Z"
           id="path3752-3-2-11"
           inkscape:connector-curvature="0"
           sodipodi:nodetypes="cccccccc" />
        <text
           xml:space="preserve"
           style="font-style:normal;font-weight:normal;font-size:5.6444px;line-height:1.25;font-family:sans-serif;letter-spacing:0px;word-spacing:0px;fill:#000000;fill-opacity:1;stroke:none;stroke-width:0.2646"
           x="539.7"
           y="179.1"
           id="text5276"><tspan
             sodipodi:role="line"
             id="tspan5274"
             x="539.7"
             y="179.1"
             style="font-size:8.4667px;stroke-width:0.2646">Gaussian</tspan><tspan
             sodipodi:role="line"
             x="539.7"
             y="189.7"
             style="font-size:8.4667px;stroke-width:0.2646"
             id="tspan5278">band-pass</tspan><tspan
             sodipodi:role="line"
             x="539.7"
             y="200.3"
             style="font-size:8.4667px;stroke-width:0.2646"
             id="tspan5280">filter</tspan></text>
      </g>
    </g>
    <g
       id="g238"
       transform="translate(-0.2,-7.934)">
      <g
         id="g253">
        <path
           style="display:inline;fill:#fafafa;fill-opacity:1;stroke:#000000;stroke-width:1.1305px;stroke-linecap:butt;stroke-linejoin:miter;stroke-opacity:1"
           d="M 536.8,238.3 C 536.9,243.1 536.9,243.5 536.8,249.6 C 536.8,255.1 530,256.4 530,260.6 C 530,264.5 536.8,267.4 536.8,272.2 C 536.8,277.1 536.8,279.3 536.8,283.5 H 593.4 V 238.3 Z"
           id="path3752-3-2-9"
           inkscape:connector-curvature="0"
           sodipodi:nodetypes="cccccccc" />
        <text
           xml:space="preserve"
           style="font-style:normal;font-weight:normal;font-size:5.6444px;line-height:1.25;font-family:sans-serif;letter-spacing:0px;word-spacing:0px;fill:#000000;fill-opacity:1;stroke:none;stroke-width:0.2646"
           x="539.9"
           y="248.2"
           id="text5284"><tspan
             sodipodi:role="line"
             id="tspan5282"
             x="539.9"
             y="248.2"
             style="font-size:8.4667px;stroke-width:0.2646">Gaussian</tspan><tspan
             sodipodi:role="line"
             x="539.9"
             y="258.8"
             style="font-size:8.4667px;stroke-width:0.2646"
             id="tspan5286">band-pass</tspan><tspan
             sodipodi:role="line"
             x="539.9"
             y="269.4"
             style="font-size:8.4667px;stroke-width:0.2646"
             id="tspan5288">regression</tspan><tspan
             sodipodi:role="line"
             x="539.9"
             y="280"
             style="font-size:8.4667px;stroke-width:0.2646"
             id="tspan5292">filter</tspan></text>
      </g>
    </g>
    <g
       id="g6638"
       transform="translate(30.48,-4)">
      <path
         sodipodi:nodetypes="ccccccccccc"
         inkscape:connector-curvature="0"
         id="path3752-5-1-9"
         d="M 312.1,167.9 L 300.8,179.2 L 312.1,190.5 L 300.8,201.8 L 312.1,213.1 H 368.6 L 357.3,201.8 L 368.6,190.5 L 357.3,179.2 L 368.6,167.9 Z"
         style="fill:#ffffff;fill-opacity:1;stroke:#000000;stroke-width:1.1305px;stroke-linecap:butt;stroke-linejoin:miter;stroke-opacity:1" />
      <text
         id="text4872-1"
         y="188.4"
         x="312.4"
         style="font-style:normal;font-weight:normal;font-size:5.6444px;line-height:1.25;font-family:sans-serif;letter-spacing:0px;word-spacing:0px;fill:#000000;fill-opacity:1;stroke:none;stroke-width:0.2646"
         xml:space="preserve"><tspan
           style="font-size:8.4667px;stroke-width:0.2646"
           y="188.4"
           x="312.4"
           id="tspan4870-4"
           sodipodi:role="line">Resize to</tspan><tspan
           id="tspan4874-5"
           style="font-size:8.4667px;stroke-width:0.2646"
           y="199"
           x="312.4"
           sodipodi:role="line">700x700</tspan></text>
    </g>
    <g
       id="g6644"
       transform="translate(30.88,-10.31)">
      <path
         sodipodi:nodetypes="ccccccccccc"
         inkscape:connector-curvature="0"
         id="path3752-5-1-9-3"
         d="M 312.1,239.5 L 300.8,250.8 L 312.1,262.1 L 300.8,273.4 L 312.1,284.7 H 368.6 L 357.3,273.4 L 368.6,262.1 L 357.3,250.8 L 368.6,239.5 Z"
         style="fill:#ffffff;fill-opacity:1;stroke:#000000;stroke-width:1.1305px;stroke-linecap:butt;stroke-linejoin:miter;stroke-opacity:1" />
      <text
         id="text4872-2"
         y="259.4"
         x="312.9"
         style="font-style:normal;font-weight:normal;font-size:5.6444px;line-height:1.25;font-family:sans-serif;letter-spacing:0px;word-spacing:0px;fill:#000000;fill-opacity:1;stroke:none;stroke-width:0.2646"
         xml:space="preserve"><tspan
           style="font-size:8.4667px;stroke-width:0.2646"
           y="259.4"
           x="312.9"
           id="tspan4870-5"
           sodipodi:role="line">Resize to</tspan><tspan
           id="tspan4874-9"
           style="font-size:8.4667px;stroke-width:0.2646"
           y="270"
           x="312.9"
           sodipodi:role="line">600x600</tspan></text>
    </g>
    <g
       id="g6632"
       transform="translate(30.75,3.491)">
      <path
         style="fill:#ffffff;fill-opacity:1;stroke:#000000;stroke-width:1.1305px;stroke-linecap:butt;stroke-linejoin:miter;stroke-opacity:1"
         d="M 312.1,96.27 L 300.8,107.6 L 312.1,118.9 L 300.8,130.2 L 312.1,141.5 H 368.6 L 357.3,130.2 L 368.6,118.9 L 357.3,107.6 L 368.6,96.27 Z"
         id="path229"
         inkscape:connector-curvature="0"
         sodipodi:nodetypes="ccccccccccc" />
      <text
         xml:space="preserve"
         style="font-style:normal;font-weight:normal;font-size:5.6444px;line-height:1.25;font-family:sans-serif;letter-spacing:0px;word-spacing:0px;fill:#000000;fill-opacity:1;stroke:none;stroke-width:0.2646"
         x="313.3"
         y="116.3"
         id="text235"><tspan
           sodipodi:role="line"
           id="tspan231"
           x="313.3"
           y="116.3"
           style="font-size:8.4667px;stroke-width:0.2646">Resize to</tspan><tspan
           sodipodi:role="line"
           x="313.3"
           y="126.9"
           style="font-size:8.4667px;stroke-width:0.2646"
           id="tspan233">608x608</tspan></text>
    </g>
    <g
       id="g194">
      <path
         sodipodi:nodetypes="cccccccccc"
         inkscape:connector-curvature="0"
         id="path3752-5-1"
         d="M 239.4,199.8 L 228.1,211.1 C 228.1,219 228,225.7 228.1,233.7 L 239.4,245 H 295.9 L 284.6,233.7 L 295.9,222.4 L 284.6,211.1 L 295.9,199.8 Z"
         style="fill:#ffffff;fill-opacity:1;stroke:#000000;stroke-width:1.1305px;stroke-linecap:butt;stroke-linejoin:miter;stroke-opacity:1" />
      <text
         id="text4835-0"
         y="220.5"
         x="230.1"
         style="font-style:normal;font-weight:normal;font-size:5.6444px;line-height:1.25;font-family:sans-serif;letter-spacing:0px;word-spacing:0px;fill:#000000;fill-opacity:1;stroke:none;stroke-width:0.2646"
         xml:space="preserve"><tspan
           style="font-size:8.4667px;stroke-width:0.2646"
           y="220.5"
           x="230.1"
           id="tspan4833-8"
           sodipodi:role="line">Downsample</tspan><tspan
           id="tspan4839-6"
           style="font-size:8.4667px;stroke-width:0.2646"
           y="231.1"
           x="230.1"
           sodipodi:role="line">to 6.25 μm </tspan></text>
    </g>
    <g
       id="g200">
      <path
         sodipodi:nodetypes="cccccccccc"
         inkscape:connector-curvature="0"
         id="path3752-5-1-6"
         d="M 239.8,127.9 L 228.5,139.2 C 228.5,147.1 228.4,153.8 228.5,161.8 L 239.8,173.1 H 296.3 L 285,161.8 L 296.3,150.5 L 285,139.2 L 296.3,127.9 Z"
         style="fill:#ffffff;fill-opacity:1;stroke:#000000;stroke-width:1.1305px;stroke-linecap:butt;stroke-linejoin:miter;stroke-opacity:1" />
      <text
         id="text4835"
         y="148.6"
         x="230.5"
         style="font-style:normal;font-weight:normal;font-size:5.6444px;line-height:1.25;font-family:sans-serif;letter-spacing:0px;word-spacing:0px;fill:#000000;fill-opacity:1;stroke:none;stroke-width:0.2646"
         xml:space="preserve"><tspan
           style="font-size:8.4667px;stroke-width:0.2646"
           y="148.6"
           x="230.5"
           id="tspan4833"
           sodipodi:role="line">Downsample</tspan><tspan
           id="tspan4839"
           style="font-size:8.4667px;stroke-width:0.2646"
           y="159.2"
           x="230.5"
           sodipodi:role="line">to 5.06 μm </tspan></text>
    </g>
    <g
       id="g245"
       transform="translate(0,71.95)">
      <path
         sodipodi:nodetypes="ccccccccccc"
         inkscape:connector-curvature="0"
         id="path3752-6"
         d="M 442.4,128 L 431.1,139.3 L 442.4,150.6 L 431.1,161.9 L 442.4,173.2 H 498.9 C 498.9,168.8 498.9,166.4 498.9,161.9 C 498.9,157.1 492.7,155.6 492.7,150.6 C 492.6,146.3 498.9,143.8 498.9,139.3 C 498.8,134.5 498.8,133 498.9,128 Z"
         style="display:inline;fill:#ffffff;fill-opacity:1;stroke:#000000;stroke-width:1.1305px;stroke-linecap:butt;stroke-linejoin:miter;stroke-opacity:1" />
      <text
         id="text4915"
         y="142.5"
         x="444.8"
         style="font-style:normal;font-weight:normal;font-size:5.6444px;line-height:1.25;font-family:sans-serif;letter-spacing:0px;word-spacing:0px;display:inline;fill:#000000;fill-opacity:1;stroke:none;stroke-width:0.2646"
         xml:space="preserve"><tspan
           style="font-size:8.4667px;stroke-width:0.2646"
           y="142.5"
           x="444.8"
           id="tspan4913"
           sodipodi:role="line">Trim non-BF</tspan><tspan
           id="tspan4919"
           style="font-size:8.4667px;stroke-width:0.2646"
           y="153.1"
           x="444.8"
           sodipodi:role="line">areas </tspan><tspan
           id="tspan1195"
           style="font-size:8.4667px;stroke-width:0.2646"
           y="163.7"
           x="444.8"
           sodipodi:role="line">manually</tspan></text>
    </g>
    <g
       id="g1277"
       transform="translate(-87.94,-36.92)">
      <g
         transform="translate(30.52)"
         id="g6716"
         style="display:inline">
        <rect
           style="display:inline;fill:#ffffff;fill-opacity:1;stroke:#5a2971;stroke-width:0;stroke-linecap:round;stroke-linejoin:round;stroke-miterlimit:4;stroke-dasharray:none;stroke-opacity:1"
           id="rect6701"
           width="55.77"
           height="45.77"
           x="499.2"
           y="167.6" />
        <path
           style="fill:none;stroke:#000000;stroke-width:0.8976px;stroke-linecap:butt;stroke-linejoin:miter;stroke-opacity:1"
           d="M 498.8,167.8 L 555.2,167.9"
           id="path5002-3"
           inkscape:connector-curvature="0"
           sodipodi:nodetypes="cc" />
        <path
           style="fill:none;stroke:#000000;stroke-width:0.8976px;stroke-linecap:butt;stroke-linejoin:miter;stroke-opacity:1"
           d="M 498.7,213.1 L 555.1,213.2"
           id="path5002-5-2"
           inkscape:connector-curvature="0"
           sodipodi:nodetypes="cc" />
        <path
           style="fill:#808080;stroke:#808080;stroke-width:0.8;stroke-linecap:butt;stroke-linejoin:miter;stroke-miterlimit:4;stroke-dasharray:1.6, 0.8;stroke-dashoffset:0;stroke-opacity:1"
           d="M 499.3,168.1 L 499.2,212.7"
           id="path5002-0-0"
           inkscape:connector-curvature="0"
           sodipodi:nodetypes="cc" />
        <path
           style="fill:#808080;stroke:#808080;stroke-width:0.8;stroke-linecap:butt;stroke-linejoin:miter;stroke-miterlimit:4;stroke-dasharray:1.6, 0.8;stroke-dashoffset:0;stroke-opacity:1"
           d="M 554.8,168.2 L 554.7,212.8"
           id="path5002-0-5-0"
           inkscape:connector-curvature="0"
           sodipodi:nodetypes="cc" />
        <text
           xml:space="preserve"
           style="font-style:normal;font-weight:normal;font-size:5.6444px;line-height:1.25;font-family:sans-serif;letter-spacing:0px;word-spacing:0px;fill:#000000;fill-opacity:1;stroke:none;stroke-width:0.2646"
           x="499.9"
           y="175"
           id="text5075-0"><tspan
             sodipodi:role="line"
             id="tspan5073-9"
             x="499.9"
             y="175"
             style="font-size:8.4667px;line-height:1;stroke-width:0.2646">Dropouts/</tspan><tspan
             sodipodi:role="line"
             x="499.9"
             y="183.5"
             style="font-size:8.4667px;line-height:1;stroke-width:0.2646"
             id="tspan5155">outliers </tspan><tspan
             id="tspan1193"
             sodipodi:role="line"
             x="499.9"
             y="192"
             style="font-size:8.4667px;line-height:1;stroke-width:0.2646">removed,  </tspan><tspan
             sodipodi:role="line"
             x="499.9"
             y="200.5"
             style="font-size:8.4667px;line-height:1;stroke-width:0.2646"
             id="tspan5157">procedure</tspan><tspan
             sodipodi:role="line"
             x="499.9"
             y="209"
             style="font-size:8.4667px;line-height:1;stroke-width:0.2646"
             id="tspan5077-8">not specified</tspan><tspan
             sodipodi:role="line"
             x="499.9"
             y="216"
             style="font-size:8.4667px;line-height:1;stroke-width:0.2646"
             id="tspan5079-0" /></text>
      </g>
    </g>
  </g>
</svg>
